<svg width="148" height="56" viewBox="0 0 148 56" fill="none" xmlns="http://www.w3.org/2000/svg">
<g clip-path="url(#clip0)">
<path d="M3.44033 42.3623L24.7961 12.3696C24.8492 12.284 24.8742 12.1839 24.8677 12.0833C24.8611 11.9827 24.8232 11.8867 24.7594 11.8088C24.6956 11.7309 24.6091 11.6751 24.512 11.6491C24.4149 11.6231 24.3121 11.6283 24.2181 11.664L1.56242 22.0474C1.474 22.0884 1.40011 22.1555 1.35054 22.2396C1.30097 22.3237 1.27806 22.421 1.28486 22.5185C1.29166 22.616 1.32784 22.7091 1.3886 22.7855C1.44937 22.8619 1.53184 22.9179 1.62509 22.9462L7.9204 24.8091C7.98256 24.8273 8.04038 24.858 8.09037 24.8993C8.14036 24.9406 8.18147 24.9916 8.21121 25.0493C8.24094 25.107 8.25869 25.1702 8.26336 25.235C8.26804 25.2998 8.25955 25.3648 8.23842 25.4262L2.59771 41.9362C2.55885 42.0456 2.56089 42.1655 2.60346 42.2735C2.64603 42.3816 2.72623 42.4704 2.82917 42.5236C2.93212 42.5768 3.05081 42.5907 3.16321 42.5628C3.2756 42.5348 3.37407 42.4669 3.44033 42.3717" fill="#28518D"/>
<path d="M24.9332 20.1751L23.2108 37.5677C23.2015 37.6656 23.1626 37.7584 23.0992 37.8335C23.0358 37.9085 22.951 37.9624 22.8563 37.9877C22.7615 38.0131 22.6613 38.0087 22.5691 37.9753C22.4768 37.9418 22.397 37.8808 22.3403 37.8005L17.0223 30.2791C16.9646 30.1978 16.9336 30.1005 16.9336 30.0008C16.9336 29.901 16.9646 29.8038 17.0223 29.7225L24.0558 19.8468C24.1175 19.7608 24.2057 19.6976 24.3069 19.667C24.408 19.6364 24.5163 19.6401 24.6152 19.6775C24.714 19.7149 24.7978 19.7839 24.8536 19.8738C24.9094 19.9638 24.9341 20.0697 24.9239 20.1751" fill="#28518D"/>
<g opacity="0.3">
<g opacity="0.3">
<path opacity="0.3" d="M24.9332 20.1751L23.2108 37.5677C23.2015 37.6656 23.1626 37.7584 23.0992 37.8335C23.0358 37.9085 22.951 37.9624 22.8563 37.9877C22.7615 38.0131 22.6613 38.0087 22.5691 37.9753C22.4768 37.9418 22.397 37.8808 22.3403 37.8005L17.0223 30.2791C16.9646 30.1978 16.9336 30.1005 16.9336 30.0008C16.9336 29.901 16.9646 29.8038 17.0223 29.7225L24.0558 19.8468C24.1175 19.7608 24.2057 19.6976 24.3069 19.667C24.408 19.6364 24.5163 19.6401 24.6152 19.6775C24.714 19.7149 24.7978 19.7839 24.8536 19.8738C24.9094 19.9638 24.9341 20.0697 24.9239 20.1751" fill="#28518D"/>
</g>
</g>
<path d="M80.333 16.7058C80.333 16.6928 80.3356 16.6799 80.3406 16.6678C80.3457 16.6558 80.3531 16.6449 80.3624 16.6358C80.3717 16.6267 80.3827 16.6196 80.3948 16.6148C80.4069 16.61 80.4198 16.6077 80.4328 16.608C81.5935 16.608 82.6938 16.608 83.7917 16.608C85.4166 16.608 87.2481 16.5545 88.873 16.6802C91.3057 16.8711 93.2834 17.749 94.9199 19.5398C100.259 25.3986 97.803 34.7876 90.1892 36.8298C89.7206 36.9145 89.2445 36.9504 88.7685 36.937C86.1432 36.937 83.5317 36.9044 80.9064 36.8997C80.7764 36.8997 80.6325 36.8997 80.4769 36.8997C80.4385 36.8991 80.4019 36.8834 80.375 36.8559C80.3481 36.8285 80.333 36.7915 80.333 36.753V16.7058ZM83.411 33.6629C83.411 33.6907 83.422 33.7174 83.4416 33.737C83.4612 33.7567 83.4878 33.7677 83.5155 33.7677C85.5652 33.7677 86.5448 33.7677 88.4946 33.7677C89.0333 33.7682 89.5701 33.7049 90.094 33.5791C92.6242 32.7804 94.6808 29.6693 94.7017 26.9704C94.7366 22.6485 91.7096 19.6678 87.5336 19.6678C86.3869 19.6678 85.2402 19.6678 84.0935 19.6678C83.9101 19.6678 83.8173 19.6678 83.4783 19.6678C83.4696 19.6675 83.4609 19.669 83.4528 19.6721C83.4446 19.6752 83.4372 19.68 83.4309 19.6861C83.4246 19.6922 83.4196 19.6995 83.4162 19.7075C83.4128 19.7156 83.411 19.7243 83.411 19.733V33.6629Z" fill="#131D28"/>
<path d="M51.6091 30.3986C51.6024 30.3986 51.5959 30.4013 51.5911 30.4061C51.5863 30.4109 51.5836 30.4174 51.5836 30.4242C51.7624 32.3058 53.6194 34.15 55.5809 34.5552C57.67 34.979 59.3808 34.3596 60.8664 32.8716C60.9977 32.7168 61.1456 32.5771 61.3075 32.4548C61.4621 32.4464 61.6171 32.4464 61.7717 32.4548C62.5818 32.4548 63.443 32.4338 64.3669 32.4338C64.371 32.4339 64.375 32.435 64.3786 32.437C64.3822 32.439 64.3853 32.4418 64.3876 32.4452C64.3899 32.4487 64.3913 32.4526 64.3917 32.4567C64.3922 32.4608 64.3916 32.4649 64.3901 32.4688C63.9019 33.7517 63.0608 34.8693 61.9644 35.6916C59.1324 37.8293 56.0544 38.2252 52.8928 36.5602C49.6778 34.8649 48.1992 32.0566 48.4104 28.4449C48.6425 24.3442 52.0409 21.0888 56.2378 20.7814C58.2178 20.6479 60.1796 21.233 61.7653 22.43C63.351 23.627 64.4548 25.356 64.8753 27.3015C65.026 28.1191 65.0906 28.9504 65.0679 29.7815C65.0679 30.55 64.8892 30.4382 64.4064 30.4382C63.2457 30.4382 62.0851 30.4079 60.9244 30.4079C58.1018 30.4079 55.2791 30.4079 52.4564 30.4079L51.6091 30.3986ZM61.853 27.6043C61.8567 27.6044 61.8604 27.6037 61.8638 27.6021C61.8672 27.6005 61.8702 27.5982 61.8724 27.5952C61.8747 27.5922 61.8762 27.5888 61.8769 27.5851C61.8775 27.5814 61.8773 27.5776 61.8762 27.574C61.2494 25.1452 58.7889 23.5478 56.1426 23.8109C53.9629 24.0298 51.89 25.9067 51.7531 27.5786C51.7531 27.5854 51.7558 27.592 51.7605 27.5968C51.7653 27.6016 51.7718 27.6043 51.7786 27.6043H61.853Z" fill="#131D28"/>
<path d="M103.016 30.3985C103.013 30.3981 103.009 30.3985 103.006 30.3997C103.003 30.4009 103 30.4027 102.997 30.4052C102.995 30.4076 102.993 30.4106 102.992 30.4139C102.991 30.4172 102.99 30.4207 102.991 30.4241C103.169 32.3056 105.026 34.1499 106.986 34.5551C109.075 34.9789 110.788 34.3595 112.273 32.8715C112.404 32.7171 112.551 32.5774 112.712 32.4547C112.867 32.4465 113.022 32.4465 113.176 32.4547C113.984 32.4547 114.848 32.4337 115.772 32.4337C115.776 32.4342 115.779 32.4356 115.783 32.4377C115.786 32.4398 115.789 32.4426 115.791 32.4459C115.793 32.4492 115.795 32.453 115.795 32.4569C115.796 32.4608 115.796 32.4648 115.795 32.4686C115.305 33.7513 114.463 34.8687 113.367 35.6915C110.535 37.8292 107.459 38.225 104.298 36.5601C101.083 34.8648 99.6039 32.0565 99.8128 28.4448C100.045 24.3441 103.446 21.0886 107.643 20.7812C109.622 20.6483 111.584 21.2336 113.17 22.4305C114.755 23.6274 115.859 25.3561 116.28 27.3014C116.43 28.1192 116.494 28.9503 116.473 29.7814C116.473 30.5499 116.294 30.4381 115.811 30.4381C114.65 30.4381 113.49 30.4078 112.329 30.4078C109.506 30.4078 106.684 30.4078 103.861 30.4078L103.016 30.3985ZM113.26 27.6041C113.264 27.6043 113.267 27.6036 113.271 27.602C113.274 27.6004 113.277 27.598 113.279 27.5951C113.282 27.5921 113.283 27.5886 113.284 27.5849C113.285 27.5812 113.284 27.5774 113.283 27.5739C112.659 25.1544 110.194 23.557 107.552 23.8201C105.375 24.039 103.299 25.9159 103.165 27.5878C103.164 27.5911 103.165 27.5944 103.166 27.5975C103.167 27.6006 103.168 27.6034 103.171 27.6058C103.173 27.6082 103.176 27.6102 103.179 27.6115C103.182 27.6128 103.185 27.6135 103.188 27.6135L113.26 27.6041Z" fill="#131D28"/>
<path d="M133.455 32.6225C133.455 32.6148 133.456 32.6072 133.458 32.6C133.461 32.5927 133.465 32.5862 133.47 32.5806C133.475 32.5751 133.482 32.5708 133.489 32.568C133.496 32.5652 133.503 32.5639 133.511 32.5642C134.44 32.5642 135.514 32.5852 136.392 32.5992C136.74 32.5992 136.61 32.6527 136.765 33.0649C137.483 35.0116 140.686 35.468 142.336 34.4248C143.093 33.9474 143.752 33.3071 143.657 32.3756C143.571 31.5257 142.961 30.9552 142.132 30.5383C140.572 29.884 138.799 29.7559 137.042 29.3577C133.908 28.6591 132.801 25.5318 134.899 23.0099C137.195 20.2481 141.798 19.6171 144.795 22.5441C145.445 23.1848 145.857 24.0296 145.962 24.938C145.965 24.9614 145.963 24.9852 145.956 25.0077C145.949 25.0302 145.938 25.051 145.922 25.0687C145.906 25.0863 145.887 25.1004 145.866 25.11C145.844 25.1196 145.821 25.1245 145.798 25.1243C145.015 25.1243 144.44 25.1406 143.683 25.1243H143.3C143.283 25.1247 143.267 25.12 143.252 25.1108C143.238 25.1017 143.227 25.0885 143.221 25.073C143.144 24.9116 143.056 24.756 142.956 24.6073C141.821 22.77 139.01 22.9493 137.71 24.0508C136.93 24.7098 137.014 25.8624 137.478 26.3398C137.998 26.8055 138.23 26.8568 139.073 27.0594C140.087 27.3039 141.113 27.4925 142.146 27.6369C144.365 27.9512 145.879 29.1109 146.382 31.2602C146.747 33.2069 146.15 34.7392 144.725 36.0059C141.696 38.6909 135.347 38.5325 133.527 33.1417C133.487 32.9714 133.463 32.7975 133.455 32.6225Z" fill="#131D28"/>
<path d="M133.265 21.3056C133.269 21.3056 133.273 21.3066 133.276 21.3085C133.279 21.3104 133.282 21.313 133.284 21.3163C133.286 21.3195 133.288 21.3232 133.288 21.327C133.288 21.3308 133.288 21.3347 133.286 21.3382C132.771 22.5933 132.32 23.6994 131.861 24.8008C130.278 28.5942 128.676 32.3898 127.114 36.1785C126.786 36.9353 126.851 36.9353 126.229 36.9353H123.894C123.613 36.9353 123.458 36.9353 123.263 36.5465C121.297 31.8892 117.46 22.6259 116.967 21.436C116.962 21.422 116.959 21.4068 116.961 21.3917C116.962 21.3766 116.968 21.3622 116.976 21.3497C116.985 21.3372 116.996 21.327 117.01 21.3201C117.023 21.3132 117.038 21.3098 117.053 21.3102C118.082 21.3102 119.064 21.3405 119.962 21.3382C120.015 21.3409 120.066 21.3579 120.11 21.3874C120.154 21.4169 120.19 21.4578 120.213 21.5058C121.684 24.9452 123.13 28.3962 124.586 31.8426C124.716 32.1477 124.855 32.4504 125.05 32.9091C125.052 32.913 125.056 32.9162 125.059 32.9184C125.063 32.9207 125.068 32.9218 125.072 32.9218C125.077 32.9218 125.081 32.9207 125.085 32.9184C125.089 32.9162 125.092 32.913 125.094 32.9091C125.264 32.5296 125.37 32.3014 125.468 32.0685C126.882 28.699 128.253 25.3341 129.646 21.9529C129.957 21.1891 129.83 21.2939 130.343 21.2939C131.157 21.2939 132.293 21.3056 133.265 21.3056Z" fill="#131D28"/>
<path d="M30.5645 34.7446V37.5389C30.5642 37.542 30.5645 37.5451 30.5654 37.548C30.5663 37.551 30.5677 37.5537 30.5697 37.5561C30.5716 37.5585 30.574 37.5605 30.5767 37.5619C30.5794 37.5634 30.5824 37.5642 30.5854 37.5645C30.9638 37.5878 36.4258 37.9045 40.799 35.8227C44.9773 33.8341 45.6853 30.9326 45.6853 27.3116V16.6162C45.6853 16.61 45.6829 16.6041 45.6785 16.5997C45.6742 16.5953 45.6683 16.5929 45.6621 16.5929H42.5284C42.5252 16.5926 42.5219 16.5929 42.5188 16.5939C42.5157 16.595 42.5129 16.5966 42.5105 16.5988C42.5081 16.601 42.5061 16.6037 42.5048 16.6067C42.5035 16.6097 42.5029 16.6129 42.5029 16.6162C42.5029 17.0237 42.5307 22.8546 42.5284 26.6037C42.5284 29.3747 42.2963 31.3028 39.7011 32.7978C36.4722 34.6607 30.9684 34.719 30.5738 34.719C30.57 34.7219 30.5671 34.7259 30.5655 34.7304C30.5639 34.7349 30.5635 34.7399 30.5645 34.7446Z" fill="#131D28"/>
<path d="M73.529 37.1514C72.9864 37.1548 72.4486 37.0502 71.9466 36.8436C71.4446 36.6371 70.9885 36.3326 70.6047 35.948C70.2208 35.5633 69.9168 35.1061 69.7103 34.6028C69.5038 34.0995 69.3989 33.5601 69.4017 33.0158C69.4017 31.6186 69.3553 31.2274 69.339 30.1166C69.3096 28.2832 69.3096 26.4514 69.339 24.6211C69.339 24.3253 69.339 24.1321 69.339 23.9621C69.3391 23.957 69.338 23.9519 69.336 23.9473C69.334 23.9426 69.3311 23.9384 69.3274 23.9349C69.3237 23.9314 69.3193 23.9287 69.3145 23.927C69.3097 23.9252 69.3047 23.9245 69.2996 23.9248C69.2207 23.9248 69.028 23.9248 68.7518 23.9248C68.0182 23.9248 67.0804 23.9458 66.3748 23.9365C66.3684 23.9359 66.3625 23.9329 66.3582 23.9282C66.3539 23.9234 66.3515 23.9173 66.3516 23.9108V21.1817C66.3516 21.173 66.355 21.1648 66.3611 21.1586C66.3672 21.1525 66.3754 21.1491 66.3841 21.1491H69.3762C69.3795 21.1491 69.3829 21.1484 69.386 21.1471C69.3891 21.1459 69.3919 21.144 69.3942 21.1416C69.3966 21.1392 69.3985 21.1364 69.3998 21.1333C69.4011 21.1302 69.4017 21.1268 69.4017 21.1235V18.1545C69.4014 18.1422 69.4035 18.1301 69.4079 18.1187C69.4123 18.1072 69.4189 18.0968 69.4273 18.0879C69.4357 18.0791 69.4457 18.0719 69.4569 18.067C69.468 18.062 69.4801 18.0593 69.4923 18.059C69.9078 18.059 71.9342 18.0427 72.2383 18.059C72.3149 18.059 72.3846 18.0427 72.3846 18.1195C72.3985 18.8624 72.4008 19.7356 72.3846 20.4808C72.3846 20.8743 72.3846 20.9768 72.3846 21.1398C72.3846 21.1466 72.3873 21.1531 72.392 21.1579C72.3968 21.1627 72.4033 21.1654 72.4101 21.1654H73.0693C74.2439 21.1654 75.4231 21.1491 76.6441 21.1491C76.6473 21.1487 76.6504 21.1491 76.6534 21.1501C76.6564 21.1511 76.6591 21.1528 76.6613 21.1551C76.6636 21.1573 76.6653 21.16 76.6663 21.163C76.6674 21.166 76.6677 21.1692 76.6673 21.1724V23.8433C76.6668 23.8493 76.6642 23.8549 76.6599 23.8592C76.6557 23.8635 76.6501 23.8661 76.6441 23.8666C75.1631 23.8666 74.0118 23.9062 72.5424 23.8876C72.3103 23.8876 72.3405 23.8876 72.3405 24.1204C72.3405 26.994 72.3242 28.1955 72.3799 31.0784C72.4101 32.6921 72.4704 34.1172 73.963 34.1405C74.7987 34.1522 75.6367 34.1405 76.4747 34.1405H77.3753C77.3813 34.141 77.3869 34.1437 77.3911 34.1479C77.3954 34.1522 77.398 34.1578 77.3985 34.1638C77.3985 34.9998 77.4125 35.9429 77.3985 36.7416C77.4091 36.8554 77.4091 36.97 77.3985 37.0839C77.389 37.1093 77.3727 37.1317 77.3514 37.1485C77.3302 37.1653 77.3047 37.176 77.2778 37.1794L73.529 37.1514Z" fill="#131D28"/>
</g>
<defs>
<clipPath id="clip0">
<rect width="148" height="56" fill="white"/>
</clipPath>
</defs>
</svg>
