<svg width="40" height="40" viewBox="0 0 40 40" fill="none" xmlns="http://www.w3.org/2000/svg">
<circle cx="20" cy="20" r="20" fill="#248EF0"/>
<path d="M17.705 18.3125V15.39H20.2775C20.5225 15.39 20.7558 15.4133 20.9775 15.46C21.2108 15.495 21.415 15.565 21.59 15.67C21.765 15.775 21.905 15.9208 22.01 16.1075C22.115 16.2942 22.1675 16.5333 22.1675 16.825C22.1675 17.35 22.01 17.7292 21.695 17.9625C21.38 18.1958 20.9775 18.3125 20.4875 18.3125H17.705ZM14.9575 13.255V25.75H21.0125C21.5725 25.75 22.115 25.68 22.64 25.54C23.1767 25.4 23.6492 25.1842 24.0575 24.8925C24.4775 24.6008 24.81 24.2275 25.055 23.7725C25.3 23.3058 25.4225 22.7575 25.4225 22.1275C25.4225 21.3458 25.23 20.6808 24.845 20.1325C24.4717 19.5725 23.9 19.1817 23.13 18.96C23.69 18.6917 24.11 18.3475 24.39 17.9275C24.6817 17.5075 24.8275 16.9825 24.8275 16.3525C24.8275 15.7692 24.7283 15.2792 24.53 14.8825C24.3433 14.4858 24.075 14.1708 23.725 13.9375C23.375 13.6925 22.955 13.5175 22.465 13.4125C21.975 13.3075 21.4325 13.255 20.8375 13.255H14.9575ZM17.705 23.615V20.185H20.6975C21.2925 20.185 21.7708 20.325 22.1325 20.605C22.4942 20.8733 22.675 21.3283 22.675 21.97C22.675 22.2967 22.6167 22.565 22.5 22.775C22.395 22.985 22.2492 23.1542 22.0625 23.2825C21.8758 23.3992 21.66 23.4867 21.415 23.545C21.17 23.5917 20.9133 23.615 20.645 23.615H17.705Z" fill="white"/>
</svg>
