<svg width="70" height="69" viewBox="0 0 70 69" fill="none" xmlns="http://www.w3.org/2000/svg">
<path d="M43.0089 43.248V43.4945C43.0089 47.9302 39.4357 51.5034 35 51.5034C30.5642 51.5034 26.991 47.9302 26.991 43.4945V43.248H10.2339V56.3088C10.2339 57.048 10.85 57.6641 11.5892 57.6641H58.4107C59.15 57.6641 59.766 57.048 59.766 56.3088V43.248H43.0089Z" fill="url(#paint0_linear_5199_370382)" fill-opacity="0.7"/>
<path d="M58.4105 58.4033H11.5891C10.4802 58.4033 9.61768 57.5408 9.61768 56.4318V43.2479C9.61768 42.8783 9.8641 42.6318 10.2337 42.6318H27.1141C27.2373 42.6318 27.4837 42.755 27.607 42.8783C27.7302 43.0015 27.607 43.1247 27.607 43.3711V43.6175C27.607 47.6836 30.9337 51.0104 34.9998 51.0104C39.0659 51.0104 42.3927 47.6836 42.3927 43.6175V43.4943V43.3711C42.3927 43.2479 42.3927 43.0015 42.5159 42.8783C42.6391 42.755 42.7623 42.6318 43.0087 42.6318H59.8891C60.2587 42.6318 60.5052 42.8783 60.5052 43.2479V56.3086C60.382 57.4176 59.5195 58.4033 58.4105 58.4033ZM10.8498 43.864V56.3086C10.8498 56.8015 11.2195 57.0479 11.5891 57.0479H58.4105C58.9034 57.0479 59.1498 56.6783 59.1498 56.3086V43.864H43.6248C43.5016 48.4229 39.682 52.1193 34.9998 52.1193C30.3177 52.1193 26.6212 48.4229 26.3748 43.864H10.8498Z" fill="#1553AE"/>
<path d="M56.5624 43.8642C56.1927 43.8642 55.9463 43.6177 55.9463 43.2481V22.3017C55.9463 21.8088 55.5766 21.4392 55.0838 21.4392H14.9159C14.4231 21.4392 14.0534 21.8088 14.0534 22.3017V43.2481C14.0534 43.6177 13.807 43.8642 13.4374 43.8642C13.0677 43.8642 12.8213 43.6177 12.8213 43.2481V22.3017C12.8213 21.1927 13.6838 20.207 14.9159 20.207H55.0838C56.1927 20.207 57.1784 21.0695 57.1784 22.3017V43.2481C57.1784 43.6177 56.8088 43.8642 56.5624 43.8642Z" fill="#1553AE"/>
<path d="M15.409 21.5621C15.0394 21.5621 14.793 21.3157 14.793 20.946V17.3728C14.793 16.2639 15.6555 15.4014 16.7644 15.4014H53.2358C54.3448 15.4014 55.2073 16.2639 55.2073 17.3728C55.2073 17.7424 54.9608 17.9889 54.5912 17.9889C54.2215 17.9889 53.9751 17.7424 53.9751 17.3728C53.9751 17.0032 53.6055 16.6335 53.2358 16.6335H16.7644C16.3948 16.6335 16.0251 17.0032 16.0251 17.3728V20.946C16.0251 21.3157 15.7787 21.5621 15.409 21.5621Z" fill="#1553AE"/>
<path d="M17.9964 16.7572C17.6268 16.7572 17.3804 16.5108 17.3804 16.1412V12.4447C17.3804 11.459 18.1197 10.7197 19.1054 10.7197H50.7714C51.7572 10.7197 52.4964 11.459 52.4964 12.4447C52.4964 12.8144 52.25 13.0608 51.8804 13.0608C51.5107 13.0608 51.2643 12.8144 51.2643 12.4447C51.2643 12.1983 51.0179 11.9519 50.7714 11.9519H19.1054C18.8589 11.9519 18.6125 12.1983 18.6125 12.4447V16.1412C18.6125 16.3876 18.3661 16.7572 17.9964 16.7572Z" fill="#1553AE"/>
<path d="M21.6928 38.6895C21.5696 38.6895 21.3232 38.6895 21.2 38.5663C20.9535 38.3198 20.9535 37.9502 21.2 37.7038L26.7446 32.1591C26.991 31.9127 27.3607 31.9127 27.6071 32.1591L30.441 34.9931L36.3553 29.0788C36.4785 28.9556 36.6017 28.9556 36.8482 28.9556C36.9714 28.9556 37.2178 29.0788 37.341 29.0788L41.7767 33.5145L47.9375 27.3538C48.1839 27.1073 48.5535 27.1073 48.8 27.3538C49.0464 27.6002 49.0464 27.9698 48.8 28.2163L42.2696 34.7466C42.1464 34.8698 42.0232 34.8698 41.7767 34.8698C41.6535 34.8698 41.4071 34.7466 41.2839 34.7466L36.8482 30.3109L30.9339 36.2252C30.6875 36.4716 30.3178 36.4716 30.0714 36.2252L27.2375 33.3913L22.0625 38.5663C21.9392 38.5663 21.816 38.6895 21.6928 38.6895Z" fill="#1553AE"/>
<defs>
<linearGradient id="paint0_linear_5199_370382" x1="35" y1="43.248" x2="35" y2="57.6641" gradientUnits="userSpaceOnUse">
<stop stop-color="#70B0FF"/>
<stop offset="1" stop-color="#2979DB"/>
</linearGradient>
</defs>
</svg>
