<svg width="20" height="20" viewBox="0 0 20 20" fill="none" xmlns="http://www.w3.org/2000/svg">
<path d="M20.0001 9.99834C19.9996 12.0708 19.3548 14.0919 18.1551 15.7819C16.9554 17.4718 15.26 18.7471 13.3037 19.4311C11.3473 20.1152 9.22673 20.1742 7.23535 19.6001C5.24397 19.026 3.48029 17.847 2.1884 16.2264C0.896518 14.6059 0.140307 12.6238 0.02443 10.5545C-0.0914469 8.48528 0.43874 6.43117 1.54162 4.67649C2.64449 2.92181 4.26551 1.55333 6.18034 0.760438C8.09517 -0.0324517 10.2091 -0.210538 12.2296 0.250824C12.7829 0.37558 13.3243 0.547941 13.8479 0.76598C15.6697 1.52637 17.2259 2.80866 18.3207 4.45147C19.4154 6.09428 19.9997 8.0242 20.0001 9.99834Z" fill="#6B8EC2"/>
<path d="M9.99762 10.3597C9.78302 10.3597 9.57721 10.2745 9.42547 10.1227C9.27373 9.97096 9.18848 9.76515 9.18848 9.55056V4.56891C9.18848 4.35431 9.27373 4.1485 9.42547 3.99676C9.57721 3.84501 9.78302 3.75977 9.99762 3.75977C10.2122 3.75977 10.418 3.84501 10.5698 3.99676C10.7215 4.1485 10.8068 4.35431 10.8068 4.56891V9.55056C10.8068 9.65681 10.7858 9.76203 10.7452 9.8602C10.7045 9.95837 10.6449 10.0476 10.5698 10.1227C10.4946 10.1978 10.4054 10.2574 10.3073 10.2981C10.2091 10.3388 10.1039 10.3597 9.99762 10.3597Z" fill="#E7EFF5"/>
<path d="M14.745 13.622C14.5903 13.6195 14.4396 13.5727 14.3107 13.4872L9.56104 10.4421C9.38042 10.3258 9.25338 10.1426 9.20785 9.9327C9.16233 9.72278 9.20206 9.50338 9.3183 9.32276C9.43454 9.14214 9.61777 9.0151 9.82769 8.96957C10.0376 8.92405 10.257 8.96378 10.4376 9.08002L15.1846 12.1386C15.3314 12.2334 15.4435 12.3732 15.5043 12.537C15.565 12.7008 15.5711 12.8799 15.5216 13.0474C15.4721 13.215 15.3697 13.362 15.2297 13.4666C15.0898 13.5711 14.9197 13.6276 14.745 13.6274V13.622Z" fill="#E7EFF5"/>
<path d="M8.64648 9.75827C8.64648 10.1174 8.78913 10.4618 9.04305 10.7157C9.29697 10.9696 9.64136 11.1122 10.0005 11.1122C10.3595 11.1122 10.7039 10.9696 10.9579 10.7157C11.2118 10.4618 11.3544 10.1174 11.3544 9.75827C11.3544 9.39917 11.2118 9.05479 10.9579 8.80087C10.7039 8.54695 10.3595 8.4043 10.0005 8.4043C9.64136 8.4043 9.29697 8.54695 9.04305 8.80087C8.78913 9.05479 8.64648 9.39917 8.64648 9.75827Z" fill="#3463A7"/>
</svg>
