<svg width="26" height="30" viewBox="0 0 26 30" fill="none" xmlns="http://www.w3.org/2000/svg">
<path d="M1.79995 0.599609C0.916296 0.599609 0.199951 1.31595 0.199951 2.19961V27.7996C0.199951 28.6833 0.916296 29.3996 1.79995 29.3996H24.2C25.0836 29.3996 25.8 28.6833 25.8 27.7996V8.59961L17.8 0.599609H1.79995Z" fill="#44DDD4"/>
<path d="M17.8 6.99961C17.8 7.88327 18.5164 8.59961 19.4 8.59961H25.8L17.8 0.599609V6.99961Z" fill="#D1FFFC"/>
<path d="M5.98704 20.5016C7.61829 20.5016 8.7761 19.5359 8.92141 18.1203L8.9261 18.0687H7.54797L7.5386 18.1063C7.3886 18.8281 6.80266 19.3016 5.99172 19.3016C4.92297 19.3016 4.26204 18.4016 4.26204 16.9484V16.9391C4.26204 15.4859 4.92297 14.5906 5.98704 14.5906C6.79329 14.5906 7.39797 15.1063 7.54329 15.8656V15.8984H8.92141V15.8422C8.79016 14.4125 7.59016 13.3906 5.98704 13.3906C4.02297 13.3906 2.8136 14.7453 2.8136 16.9391V16.9484C2.8136 19.1422 4.02766 20.5016 5.98704 20.5016Z" fill="white"/>
<path d="M20.0011 20.3281H21.7449L23.9995 13.5641H22.4058L20.9152 18.7531H20.8308L19.3355 13.5641H17.7464L20.0011 20.3281Z" fill="white"/>
<path d="M13.5292 20.5016C15.2167 20.5016 16.2573 19.6531 16.2573 18.3125V18.3078C16.2573 17.2531 15.6339 16.6812 14.2042 16.3859L13.487 16.2406C12.6902 16.0766 12.362 15.8141 12.362 15.3734V15.3687C12.362 14.8625 12.8261 14.5438 13.5245 14.5391C14.237 14.5391 14.7058 14.8766 14.7855 15.3594L14.7948 15.4156H16.1261L16.1214 15.3547C16.0323 14.225 15.1042 13.3906 13.5245 13.3906C12.0245 13.3906 10.9464 14.2203 10.9464 15.4766V15.4813C10.9464 16.5078 11.5511 17.1641 12.9573 17.45L13.6698 17.5953C14.5089 17.7688 14.8417 18.0172 14.8417 18.4625V18.4672C14.8417 18.9875 14.3214 19.3484 13.5667 19.3484C12.7745 19.3484 12.2261 19.0062 12.1745 18.5L12.1698 18.4531H10.8058L10.8105 18.5281C10.8902 19.7281 11.912 20.5016 13.5292 20.5016Z" fill="white"/>
</svg>
