<svg width="16" height="16" viewBox="0 0 16 16" fill="none" xmlns="http://www.w3.org/2000/svg">
<path d="M2.39954 9.03125V11.4312C2.39954 12.7567 4.90674 13.8312 7.99954 13.8312C11.0923 13.8312 13.5995 12.7567 13.5995 11.4312V9.03125C13.5995 10.3567 11.0923 11.4312 7.99954 11.4312C4.90674 11.4312 2.39954 10.3567 2.39954 9.03125Z" fill="#1A202C" fill-opacity="0.8"/>
<path d="M2.39954 5.03125V7.43125C2.39954 8.75673 4.90674 9.83125 7.99954 9.83125C11.0923 9.83125 13.5995 8.75673 13.5995 7.43125V5.03125C13.5995 6.35673 11.0923 7.43125 7.99954 7.43125C4.90674 7.43125 2.39954 6.35673 2.39954 5.03125Z" fill="#1A202C" fill-opacity="0.8"/>
<path d="M13.5995 3.43125C13.5995 4.75673 11.0923 5.83125 7.99954 5.83125C4.90674 5.83125 2.39954 4.75673 2.39954 3.43125C2.39954 2.10577 4.90674 1.03125 7.99954 1.03125C11.0923 1.03125 13.5995 2.10577 13.5995 3.43125Z" fill="#1A202C" fill-opacity="0.8"/>
</svg>
