<svg width="150" height="150" viewBox="0 0 150 150" fill="none" xmlns="http://www.w3.org/2000/svg">
<path d="M96.5955 28.1546L96.6051 28.159L96.5942 28.157C92.702 38.1723 88.8025 48.8514 84.8668 60.1334C83.907 62.8857 85.9496 65.7623 88.8646 65.7623H128.339C135.403 65.7623 141.128 71.4876 141.128 78.5522C141.128 82.613 139.23 86.3492 136.054 88.7557C135.275 89.3457 134.725 90.187 134.495 91.1367C134.266 92.0865 134.372 93.0863 134.796 93.9668C135.626 95.6945 136.056 97.5876 136.052 99.5046C136.052 104.206 133.499 108.454 129.462 110.696C127.026 112.049 126.538 115.345 128.478 117.345L128.514 117.311L128.478 117.346C130.085 118.996 130.981 121.21 130.976 123.513C130.977 125.1 130.552 126.657 129.745 128.023C128.938 129.389 127.779 130.513 126.389 131.278L126.413 131.322L126.389 131.278C125.706 131.656 125.14 132.215 124.754 132.894C124.369 133.573 124.179 134.346 124.205 135.126C124.207 138.025 121.998 140.232 119.273 140.232L54.7441 140.232L54.742 140.232C54.3683 140.247 54.2836 140.25 54.1984 140.25H12.3982C11.4498 140.25 10.5401 139.874 9.8693 139.203C9.1985 138.533 8.82149 137.623 8.8212 136.675V66.0019C8.82098 65.5321 8.91336 65.0668 9.09305 64.6328C9.27274 64.1988 9.53622 63.8044 9.86842 63.4722C10.2006 63.1401 10.595 62.8767 11.0291 62.697C11.4632 62.5174 11.9284 62.4251 12.3982 62.4254H46.0495C46.8213 62.4254 47.5784 62.2146 48.239 61.8155C48.8996 61.4165 49.4386 60.8445 49.7978 60.1614C53.9315 52.2967 58.1901 45.7452 62.4291 41.0407C66.9621 36.0112 69.7803 30.7637 71.2515 25.2282C72.3019 21.2769 72.5419 18.3778 72.5944 13.1387C72.6086 11.6997 72.6314 10.8956 72.6819 10.3528C79.1339 8.43937 86.2277 10.4811 91.1533 14.2083C96.0898 17.9437 98.8286 23.3534 96.5955 28.1546ZM128.339 57.2935H94.8414C98.0578 48.2153 101.237 39.5879 104.336 31.5922C108.38 22.7184 104.258 13.6856 96.7128 7.7979C89.1669 1.90979 78.1843 -0.845167 68.479 2.83914L68.4789 2.83896L68.475 2.84086C66.0003 4.03609 64.8906 5.88139 64.4418 8.1989L64.4909 8.20841L64.4418 8.19892C64.1987 9.45752 64.1513 10.4687 64.1257 13.0545C64.0805 17.634 63.8859 19.9707 63.0673 23.0529C61.9386 27.2992 59.7652 31.3466 56.138 35.3717C51.7856 40.2015 47.5737 46.5122 43.5137 53.9572H12.3982C5.74367 53.9566 0.352451 59.349 0.352451 66.0019V136.675C0.352451 143.327 5.74591 148.719 12.3982 148.719H54.199C54.4247 148.719 54.6499 148.713 54.8753 148.7H119.272C125.969 148.7 131.518 143.792 132.517 137.376C134.666 135.764 136.411 133.675 137.614 131.272C138.819 128.864 139.446 126.207 139.445 123.514C139.448 120.674 138.751 117.877 137.416 115.371C139.648 113.382 141.434 110.944 142.659 108.216C143.889 105.477 144.523 102.508 144.521 99.5047C144.521 97.3926 144.211 95.3202 143.612 93.3412C147.456 89.3784 149.603 84.0732 149.597 78.5521C149.597 66.81 140.08 57.2935 128.339 57.2935Z" fill="#CED0D8" stroke="#CED0D8" stroke-width="0.1"/>
<path d="M40.6735 59.5984V143.833C40.6735 144.956 41.1196 146.033 41.9137 146.827C42.7078 147.621 43.7848 148.067 44.9079 148.067C46.0309 148.067 47.1079 147.621 47.902 146.827C48.6961 146.033 49.1422 144.956 49.1422 143.833V59.5984C49.1422 58.4754 48.6961 57.3984 47.902 56.6043C47.1079 55.8102 46.0309 55.3641 44.9079 55.3641C43.7848 55.3641 42.7078 55.8102 41.9137 56.6043C41.1196 57.3984 40.6735 58.4754 40.6735 59.5984Z" fill="#CED0D8" stroke="#CED0D8" stroke-width="0.1"/>
</svg>
