<svg width="150" height="150" viewBox="0 0 150 150" fill="none" xmlns="http://www.w3.org/2000/svg">
<path d="M148.35 84.5811C146.156 82.3427 142.546 82.3427 140.351 84.5811L89.8779 136.068L66.0454 111.757C63.8511 109.518 60.2407 109.518 58.0462 111.757C55.8517 113.995 55.8519 117.678 58.0462 119.917L85.8903 148.32C88.0846 150.558 91.695 150.558 93.8895 148.32L148.374 92.7414C150.545 90.503 150.545 86.8201 148.35 84.5815V84.5811Z" fill="#CED0D8"/>
<path d="M50.0246 132.387H16.9895C13.8747 132.387 11.3263 129.788 11.3263 126.61V17.3306C11.3263 14.1533 13.8747 11.5538 16.9895 11.5538H124.118C127.233 11.5538 129.781 14.1533 129.781 17.3306V67.1563C129.781 70.3578 132.306 72.9332 135.444 72.9332C138.583 72.9332 141.107 70.3576 141.107 67.1563V17.3306C141.107 7.77469 133.486 0 124.118 0H16.9895C7.62165 0 0 7.77469 0 17.3306V126.61C0 136.166 7.62165 143.941 16.9895 143.941H50.0246C53.1631 143.941 55.6878 141.365 55.6878 138.164C55.6878 134.963 53.1629 132.387 50.0246 132.387Z" fill="#CED0D8"/>
<path d="M105.948 30.6367H38.2257C35.1109 30.6367 32.5625 33.2363 32.5625 36.4136C32.5625 39.5909 35.1109 42.1905 38.2257 42.1905H105.948C109.062 42.1905 111.611 39.5909 111.611 36.4136C111.611 33.2363 109.062 30.6367 105.948 30.6367ZM105.948 58.4862H38.2257C35.1109 58.4862 32.5625 61.0857 32.5625 64.2631C32.5625 67.4404 35.1109 70.0399 38.2257 70.0399H105.948C109.062 70.0399 111.611 67.4404 111.611 64.2631C111.611 61.0857 109.062 58.4862 105.948 58.4862ZM105.948 86.3598H38.2257C35.1109 86.3598 32.5625 88.9594 32.5625 92.1367C32.5625 95.314 35.1109 97.9136 38.2257 97.9136H105.948C109.062 97.9136 111.611 95.314 111.611 92.1367C111.611 88.9594 109.062 86.3598 105.948 86.3598Z" fill="#CED0D8"/>
</svg>
