<svg width="110" height="110" viewBox="0 0 110 110" fill="none" xmlns="http://www.w3.org/2000/svg">
<g clip-path="url(#clip0)">
<mask id="path-1-outside-1" maskUnits="userSpaceOnUse" x="17.3333" y="-1" width="75" height="112" fill="black">
<rect fill="white" x="17.3333" y="-1" width="75" height="112"/>
<path d="M88.7839 36.6298L78.8008 36.6298V22.086C78.8008 16.0179 76.1166 10.4902 71.8059 6.48576C67.4953 2.4813 61.5451 0 55.0131 0C48.4811 0 42.5308 2.4813 38.2202 6.48576C33.9096 10.4902 31.2254 16.0179 31.2254 22.086L31.2254 36.6298H21.0042V36.6421H20.9381V36.6544H20.872L20.7927 36.6667L20.7266 36.6789L20.6605 36.6912L20.5943 36.7035L20.5282 36.7158L20.4621 36.7281L20.396 36.7527L20.3299 36.7772L20.2638 36.8018L20.1977 36.8264L20.1315 36.8509L20.0654 36.8755L19.9993 36.9001L19.9464 36.9246L19.8803 36.9492L19.8274 36.9738L19.7613 37.0106L19.7084 37.0352V37.0475L19.6423 37.072L19.5894 37.1089L19.5233 37.1457L19.4704 37.1826L19.4043 37.2194L19.3514 37.2563L19.2985 37.2931L19.2456 37.3423L19.1663 37.4283L19.1134 37.4651L19.0737 37.5142L19.0341 37.5634L18.9944 37.6125V37.6248L18.9547 37.6739L18.9151 37.7231L18.8754 37.7845L18.8357 37.8336L18.796 37.895L18.7696 37.9442L18.7299 38.0056L18.7035 38.067L18.677 38.1284L18.6506 38.1898L18.6109 38.239V38.2513L18.5845 38.3004V38.3127L18.558 38.3618V38.3741L18.5316 38.4355L18.5051 38.4969L18.4919 38.5583L18.4655 38.6198L18.4523 38.6812V38.6935L18.4258 38.7549L18.4126 38.8163L18.3994 38.8777L18.3861 38.9514L18.3729 39.0128L18.3597 39.0743L18.3465 39.148V39.2094L18.3333 39.2708L18.3333 56.6522C18.3333 61.2585 19.325 65.6561 21.1232 69.6851C22.9877 73.8615 25.7115 77.6203 29.0966 80.7649L29.123 80.7772C35.4302 86.6365 43.668 89.8794 52.0909 90.4813V104.595H27.6288C26.0289 104.595 24.7198 105.799 24.7198 107.298C24.7198 108.796 26.0157 110 27.6288 110L82.3709 110C83.9708 110 85.2799 108.796 85.2799 107.298C85.2799 105.799 83.9841 104.595 82.3709 104.595L57.9089 104.595V90.4936C66.3317 89.8917 74.5695 86.6488 80.9164 80.7649L80.9429 80.7527C84.3146 77.6203 87.0253 73.8615 88.8897 69.6728C90.688 65.6438 91.6665 61.2462 91.6665 56.6399L91.6665 39.3322C91.6797 37.8459 90.3839 36.6298 88.7839 36.6298ZM37.0302 54.2446L42.9011 54.2446C44.501 54.2446 45.8101 53.0285 45.8101 51.5422C45.8101 50.0558 44.501 48.8398 42.9011 48.8398L37.0302 48.8398V42.0346L42.1474 42.0346C43.7473 42.0346 45.0564 40.8185 45.0564 39.3322C45.0564 37.8459 43.7606 36.6298 42.1474 36.6298L37.0302 36.6298L37.0302 29.8247H42.9011C44.501 29.8247 45.8101 28.6209 45.8101 27.1223C45.8101 25.636 44.501 24.4199 42.9011 24.4199H37.0302V22.0737C37.0302 17.4796 39.04 13.3032 42.2928 10.2937C45.5588 7.27192 50.0546 5.39252 54.9999 5.39252C59.9584 5.39252 64.4541 7.27192 67.7069 10.2937C70.9597 13.3155 72.9828 17.4919 72.9828 22.0737V24.4199H67.0987C65.4855 24.4199 64.1897 25.636 64.1897 27.1223C64.1897 28.6086 65.4987 29.8247 67.0987 29.8247H72.9828V36.6298H67.8524C66.2392 36.6298 64.9434 37.8459 64.9434 39.3322C64.9434 40.8308 66.2392 42.0346 67.8524 42.0346H72.9828V48.8398H67.0987C65.4855 48.8398 64.1897 50.0435 64.1897 51.5422C64.1897 53.0408 65.4987 54.2446 67.0987 54.2446H72.9828V56.5662C72.9828 61.1602 70.9597 65.3367 67.6937 68.3585C64.4409 71.3925 59.9452 73.2719 54.9999 73.2719C50.0678 73.2719 45.5721 71.3925 42.3061 68.3585L42.2928 68.3708C39.04 65.3367 37.017 61.1602 37.017 56.5662L37.017 54.2446H37.0302ZM85.8749 56.6399V56.7013C85.8617 60.5829 85.0419 64.268 83.5477 67.6214C82.0007 71.11 79.6999 74.2669 76.8438 76.9202L76.8306 76.9324V76.9447C70.92 82.4232 63.0128 85.1748 55.0924 85.1871H54.9999C54.9205 85.1871 54.828 85.1993 54.7486 85.1993C46.8943 85.1379 39.0665 82.3864 33.1956 76.9447V76.9324L33.1691 76.9202C30.313 74.2669 28.0123 71.11 26.452 67.5969C24.9446 64.2312 24.1116 60.5338 24.1116 56.6399V42.0346H31.1857V56.5662C31.1857 62.6466 33.87 68.1742 38.1806 72.1664V72.1787C42.4912 76.1831 48.4414 78.6767 54.9866 78.6767C61.5319 78.6767 67.4953 76.1954 71.7927 72.1787C76.1033 68.1742 78.7875 62.6466 78.7875 56.5662V42.0346L85.8617 42.0346L85.8617 56.6399H85.8749Z"/>
</mask>
<path d="M88.7839 36.6298L78.8008 36.6298V22.086C78.8008 16.0179 76.1166 10.4902 71.8059 6.48576C67.4953 2.4813 61.5451 0 55.0131 0C48.4811 0 42.5308 2.4813 38.2202 6.48576C33.9096 10.4902 31.2254 16.0179 31.2254 22.086L31.2254 36.6298H21.0042V36.6421H20.9381V36.6544H20.872L20.7927 36.6667L20.7266 36.6789L20.6605 36.6912L20.5943 36.7035L20.5282 36.7158L20.4621 36.7281L20.396 36.7527L20.3299 36.7772L20.2638 36.8018L20.1977 36.8264L20.1315 36.8509L20.0654 36.8755L19.9993 36.9001L19.9464 36.9246L19.8803 36.9492L19.8274 36.9738L19.7613 37.0106L19.7084 37.0352V37.0475L19.6423 37.072L19.5894 37.1089L19.5233 37.1457L19.4704 37.1826L19.4043 37.2194L19.3514 37.2563L19.2985 37.2931L19.2456 37.3423L19.1663 37.4283L19.1134 37.4651L19.0737 37.5142L19.0341 37.5634L18.9944 37.6125V37.6248L18.9547 37.6739L18.9151 37.7231L18.8754 37.7845L18.8357 37.8336L18.796 37.895L18.7696 37.9442L18.7299 38.0056L18.7035 38.067L18.677 38.1284L18.6506 38.1898L18.6109 38.239V38.2513L18.5845 38.3004V38.3127L18.558 38.3618V38.3741L18.5316 38.4355L18.5051 38.4969L18.4919 38.5583L18.4655 38.6198L18.4523 38.6812V38.6935L18.4258 38.7549L18.4126 38.8163L18.3994 38.8777L18.3861 38.9514L18.3729 39.0128L18.3597 39.0743L18.3465 39.148V39.2094L18.3333 39.2708L18.3333 56.6522C18.3333 61.2585 19.325 65.6561 21.1232 69.6851C22.9877 73.8615 25.7115 77.6203 29.0966 80.7649L29.123 80.7772C35.4302 86.6365 43.668 89.8794 52.0909 90.4813V104.595H27.6288C26.0289 104.595 24.7198 105.799 24.7198 107.298C24.7198 108.796 26.0157 110 27.6288 110L82.3709 110C83.9708 110 85.2799 108.796 85.2799 107.298C85.2799 105.799 83.9841 104.595 82.3709 104.595L57.9089 104.595V90.4936C66.3317 89.8917 74.5695 86.6488 80.9164 80.7649L80.9429 80.7527C84.3146 77.6203 87.0253 73.8615 88.8897 69.6728C90.688 65.6438 91.6665 61.2462 91.6665 56.6399L91.6665 39.3322C91.6797 37.8459 90.3839 36.6298 88.7839 36.6298ZM37.0302 54.2446L42.9011 54.2446C44.501 54.2446 45.8101 53.0285 45.8101 51.5422C45.8101 50.0558 44.501 48.8398 42.9011 48.8398L37.0302 48.8398V42.0346L42.1474 42.0346C43.7473 42.0346 45.0564 40.8185 45.0564 39.3322C45.0564 37.8459 43.7606 36.6298 42.1474 36.6298L37.0302 36.6298L37.0302 29.8247H42.9011C44.501 29.8247 45.8101 28.6209 45.8101 27.1223C45.8101 25.636 44.501 24.4199 42.9011 24.4199H37.0302V22.0737C37.0302 17.4796 39.04 13.3032 42.2928 10.2937C45.5588 7.27192 50.0546 5.39252 54.9999 5.39252C59.9584 5.39252 64.4541 7.27192 67.7069 10.2937C70.9597 13.3155 72.9828 17.4919 72.9828 22.0737V24.4199H67.0987C65.4855 24.4199 64.1897 25.636 64.1897 27.1223C64.1897 28.6086 65.4987 29.8247 67.0987 29.8247H72.9828V36.6298H67.8524C66.2392 36.6298 64.9434 37.8459 64.9434 39.3322C64.9434 40.8308 66.2392 42.0346 67.8524 42.0346H72.9828V48.8398H67.0987C65.4855 48.8398 64.1897 50.0435 64.1897 51.5422C64.1897 53.0408 65.4987 54.2446 67.0987 54.2446H72.9828V56.5662C72.9828 61.1602 70.9597 65.3367 67.6937 68.3585C64.4409 71.3925 59.9452 73.2719 54.9999 73.2719C50.0678 73.2719 45.5721 71.3925 42.3061 68.3585L42.2928 68.3708C39.04 65.3367 37.017 61.1602 37.017 56.5662L37.017 54.2446H37.0302ZM85.8749 56.6399V56.7013C85.8617 60.5829 85.0419 64.268 83.5477 67.6214C82.0007 71.11 79.6999 74.2669 76.8438 76.9202L76.8306 76.9324V76.9447C70.92 82.4232 63.0128 85.1748 55.0924 85.1871H54.9999C54.9205 85.1871 54.828 85.1993 54.7486 85.1993C46.8943 85.1379 39.0665 82.3864 33.1956 76.9447V76.9324L33.1691 76.9202C30.313 74.2669 28.0123 71.11 26.452 67.5969C24.9446 64.2312 24.1116 60.5338 24.1116 56.6399V42.0346H31.1857V56.5662C31.1857 62.6466 33.87 68.1742 38.1806 72.1664V72.1787C42.4912 76.1831 48.4414 78.6767 54.9866 78.6767C61.5319 78.6767 67.4953 76.1954 71.7927 72.1787C76.1033 68.1742 78.7875 62.6466 78.7875 56.5662V42.0346L85.8617 42.0346L85.8617 56.6399H85.8749Z" fill="#CED0D8"/>
<path d="M88.7839 36.6298L78.8008 36.6298V22.086C78.8008 16.0179 76.1166 10.4902 71.8059 6.48576C67.4953 2.4813 61.5451 0 55.0131 0C48.4811 0 42.5308 2.4813 38.2202 6.48576C33.9096 10.4902 31.2254 16.0179 31.2254 22.086L31.2254 36.6298H21.0042V36.6421H20.9381V36.6544H20.872L20.7927 36.6667L20.7266 36.6789L20.6605 36.6912L20.5943 36.7035L20.5282 36.7158L20.4621 36.7281L20.396 36.7527L20.3299 36.7772L20.2638 36.8018L20.1977 36.8264L20.1315 36.8509L20.0654 36.8755L19.9993 36.9001L19.9464 36.9246L19.8803 36.9492L19.8274 36.9738L19.7613 37.0106L19.7084 37.0352V37.0475L19.6423 37.072L19.5894 37.1089L19.5233 37.1457L19.4704 37.1826L19.4043 37.2194L19.3514 37.2563L19.2985 37.2931L19.2456 37.3423L19.1663 37.4283L19.1134 37.4651L19.0737 37.5142L19.0341 37.5634L18.9944 37.6125V37.6248L18.9547 37.6739L18.9151 37.7231L18.8754 37.7845L18.8357 37.8336L18.796 37.895L18.7696 37.9442L18.7299 38.0056L18.7035 38.067L18.677 38.1284L18.6506 38.1898L18.6109 38.239V38.2513L18.5845 38.3004V38.3127L18.558 38.3618V38.3741L18.5316 38.4355L18.5051 38.4969L18.4919 38.5583L18.4655 38.6198L18.4523 38.6812V38.6935L18.4258 38.7549L18.4126 38.8163L18.3994 38.8777L18.3861 38.9514L18.3729 39.0128L18.3597 39.0743L18.3465 39.148V39.2094L18.3333 39.2708L18.3333 56.6522C18.3333 61.2585 19.325 65.6561 21.1232 69.6851C22.9877 73.8615 25.7115 77.6203 29.0966 80.7649L29.123 80.7772C35.4302 86.6365 43.668 89.8794 52.0909 90.4813V104.595H27.6288C26.0289 104.595 24.7198 105.799 24.7198 107.298C24.7198 108.796 26.0157 110 27.6288 110L82.3709 110C83.9708 110 85.2799 108.796 85.2799 107.298C85.2799 105.799 83.9841 104.595 82.3709 104.595L57.9089 104.595V90.4936C66.3317 89.8917 74.5695 86.6488 80.9164 80.7649L80.9429 80.7527C84.3146 77.6203 87.0253 73.8615 88.8897 69.6728C90.688 65.6438 91.6665 61.2462 91.6665 56.6399L91.6665 39.3322C91.6797 37.8459 90.3839 36.6298 88.7839 36.6298ZM37.0302 54.2446L42.9011 54.2446C44.501 54.2446 45.8101 53.0285 45.8101 51.5422C45.8101 50.0558 44.501 48.8398 42.9011 48.8398L37.0302 48.8398V42.0346L42.1474 42.0346C43.7473 42.0346 45.0564 40.8185 45.0564 39.3322C45.0564 37.8459 43.7606 36.6298 42.1474 36.6298L37.0302 36.6298L37.0302 29.8247H42.9011C44.501 29.8247 45.8101 28.6209 45.8101 27.1223C45.8101 25.636 44.501 24.4199 42.9011 24.4199H37.0302V22.0737C37.0302 17.4796 39.04 13.3032 42.2928 10.2937C45.5588 7.27192 50.0546 5.39252 54.9999 5.39252C59.9584 5.39252 64.4541 7.27192 67.7069 10.2937C70.9597 13.3155 72.9828 17.4919 72.9828 22.0737V24.4199H67.0987C65.4855 24.4199 64.1897 25.636 64.1897 27.1223C64.1897 28.6086 65.4987 29.8247 67.0987 29.8247H72.9828V36.6298H67.8524C66.2392 36.6298 64.9434 37.8459 64.9434 39.3322C64.9434 40.8308 66.2392 42.0346 67.8524 42.0346H72.9828V48.8398H67.0987C65.4855 48.8398 64.1897 50.0435 64.1897 51.5422C64.1897 53.0408 65.4987 54.2446 67.0987 54.2446H72.9828V56.5662C72.9828 61.1602 70.9597 65.3367 67.6937 68.3585C64.4409 71.3925 59.9452 73.2719 54.9999 73.2719C50.0678 73.2719 45.5721 71.3925 42.3061 68.3585L42.2928 68.3708C39.04 65.3367 37.017 61.1602 37.017 56.5662L37.017 54.2446H37.0302ZM85.8749 56.6399V56.7013C85.8617 60.5829 85.0419 64.268 83.5477 67.6214C82.0007 71.11 79.6999 74.2669 76.8438 76.9202L76.8306 76.9324V76.9447C70.92 82.4232 63.0128 85.1748 55.0924 85.1871H54.9999C54.9205 85.1871 54.828 85.1993 54.7486 85.1993C46.8943 85.1379 39.0665 82.3864 33.1956 76.9447V76.9324L33.1691 76.9202C30.313 74.2669 28.0123 71.11 26.452 67.5969C24.9446 64.2312 24.1116 60.5338 24.1116 56.6399V42.0346H31.1857V56.5662C31.1857 62.6466 33.87 68.1742 38.1806 72.1664V72.1787C42.4912 76.1831 48.4414 78.6767 54.9866 78.6767C61.5319 78.6767 67.4953 76.1954 71.7927 72.1787C76.1033 68.1742 78.7875 62.6466 78.7875 56.5662V42.0346L85.8617 42.0346L85.8617 56.6399H85.8749Z" stroke="#CED0D8" stroke-width="0.4" mask="url(#path-1-outside-1)"/>
</g>
<defs>
<clipPath id="clip0">
<rect width="110" height="110" fill="white"/>
</clipPath>
</defs>
</svg>
