<svg width="18" height="18" viewBox="0 0 18 18" fill="none" xmlns="http://www.w3.org/2000/svg">
<path fill-rule="evenodd" clip-rule="evenodd" d="M6.8002 2.4002C4.37014 2.4002 2.4002 4.37014 2.4002 6.80019C2.4002 9.23025 4.37014 11.2002 6.8002 11.2002C9.23025 11.2002 11.2002 9.23025 11.2002 6.80019C11.2002 4.37014 9.23025 2.4002 6.8002 2.4002ZM0.200195 6.80019C0.200195 3.15512 3.15512 0.200195 6.8002 0.200195C10.4453 0.200195 13.4002 3.15512 13.4002 6.80019C13.4002 8.22561 12.9483 9.54548 12.18 10.6244L17.478 15.9224C17.9076 16.352 17.9076 17.0484 17.478 17.478C17.0484 17.9076 16.352 17.9076 15.9224 17.478L10.6244 12.18C9.54548 12.9483 8.22561 13.4002 6.8002 13.4002C3.15512 13.4002 0.200195 10.4453 0.200195 6.80019Z" fill="#A0AEC0"/>
</svg>
