<svg width="14" height="14" viewBox="0 0 14 14" fill="none" xmlns="http://www.w3.org/2000/svg">
<path fill-rule="evenodd" clip-rule="evenodd" d="M11.2 1.4C10.4268 1.4 9.8 2.0268 9.8 2.8C9.8 3.02636 9.8532 3.23829 9.94715 3.42582C10.1779 3.88633 10.6529 4.2 11.2 4.2C11.9732 4.2 12.6 3.5732 12.6 2.8C12.6 2.0268 11.9732 1.4 11.2 1.4ZM8.4 2.8C8.4 1.2536 9.6536 0 11.2 0C12.7464 0 14 1.2536 14 2.8C14 4.3464 12.7464 5.6 11.2 5.6C10.3566 5.6 9.60106 5.22704 9.08824 4.6385L5.53832 6.41346C5.57875 6.60289 5.6 6.79916 5.6 7C5.6 7.20084 5.57875 7.39711 5.53832 7.58654L9.08824 9.3615C9.60106 8.77296 10.3566 8.4 11.2 8.4C12.7464 8.4 14 9.6536 14 11.2C14 12.7464 12.7464 14 11.2 14C9.6536 14 8.4 12.7464 8.4 11.2C8.4 10.9992 8.42125 10.8029 8.46168 10.6135L4.91176 8.8385C4.39894 9.42704 3.6434 9.8 2.8 9.8C1.2536 9.8 0 8.5464 0 7C0 5.4536 1.2536 4.2 2.8 4.2C3.6434 4.2 4.39894 4.57296 4.91176 5.1615L8.46168 3.38654C8.42125 3.19711 8.4 3.00084 8.4 2.8ZM2.8 5.6C2.0268 5.6 1.4 6.2268 1.4 7C1.4 7.7732 2.0268 8.4 2.8 8.4C3.34707 8.4 3.82215 8.08633 4.05285 7.62582C4.1468 7.43829 4.2 7.22636 4.2 7C4.2 6.77364 4.1468 6.56171 4.05285 6.37418C3.82215 5.91367 3.34707 5.6 2.8 5.6ZM11.2 9.8C10.6529 9.8 10.1779 10.1137 9.94715 10.5742C9.8532 10.7617 9.8 10.9736 9.8 11.2C9.8 11.9732 10.4268 12.6 11.2 12.6C11.9732 12.6 12.6 11.9732 12.6 11.2C12.6 10.4268 11.9732 9.8 11.2 9.8Z" fill="#1D6BCB"/>
</svg>
