<svg width="150" height="140" viewBox="0 0 150 140" fill="none" xmlns="http://www.w3.org/2000/svg">
<path fill-rule="evenodd" clip-rule="evenodd" d="M32.1411 5.60714C32.1411 2.64848 34.5396 0.25 37.4983 0.25C40.4569 0.25 42.8554 2.64847 42.8554 5.60714V10.9678H107.141V5.60714C107.141 2.64848 109.54 0.25 112.498 0.25C115.457 0.25 117.855 2.64847 117.855 5.60714V10.9678H139.286C145.203 10.9678 150 16.2008 150 22.6561V127.851C150 134.306 145.203 139.539 139.286 139.539H10.7143C4.79695 139.539 0 134.306 0 127.851V22.6561C0 16.2008 4.79695 10.9678 10.7143 10.9678H32.1411V5.60714ZM107.141 22.6561V27.0357C107.141 29.9944 109.54 32.3929 112.498 32.3929C115.457 32.3929 117.855 29.9944 117.855 27.0357V22.6561H139.286V127.851H10.7143V22.6561H32.1411V27.0357C32.1411 29.9944 34.5396 32.3929 37.4983 32.3929C40.4569 32.3929 42.8554 29.9944 42.8554 27.0357V22.6561H107.141ZM117.859 59.1838C117.859 56.2251 115.94 53.8267 113.573 53.8267L36.4303 53.8267C34.0634 53.8267 32.1446 56.2251 32.1446 59.1838C32.1446 62.1425 34.0634 64.5409 36.4303 64.5409L113.573 64.541C115.94 64.541 117.859 62.1425 117.859 59.1838ZM113.573 85.9678C115.94 85.9678 117.859 88.3662 117.859 91.3249C117.859 94.2836 115.94 96.6821 113.573 96.6821L36.4303 96.6821C34.0634 96.6821 32.1446 94.2836 32.1446 91.3249C32.1446 88.3662 34.0634 85.9678 36.4303 85.9678L113.573 85.9678Z" fill="#CED0D8"/>
</svg>
