<svg width="22" height="22" viewBox="0 0 22 22" fill="none" xmlns="http://www.w3.org/2000/svg">
<path d="M0 4C0 1.79086 1.79086 0 4 0H18C20.2091 0 22 1.79086 22 4V18C22 20.2091 20.2091 22 18 22H4C1.79086 22 0 20.2091 0 18V4Z" fill="#D1ECFC"/>
<path d="M11.8815 8.25L13.9335 8.25C14.2039 8.25 14.4524 8.38955 14.5801 8.6131C14.7077 8.83664 14.6937 9.10789 14.5437 9.31886L11.6103 13.4439C11.4743 13.6351 11.2454 13.75 11.0002 13.75C10.755 13.75 10.526 13.6351 10.39 13.4439L7.45666 9.31886C7.30664 9.10789 7.29266 8.83664 7.42027 8.6131C7.54788 8.38955 7.79638 8.25 8.06683 8.25L11.8815 8.25Z" fill="#4F96DF"/>
</svg>
