<svg width="57" height="54" viewBox="0 0 57 54" fill="none" xmlns="http://www.w3.org/2000/svg">
<path d="M4 0L0.986336 11.1468L12.1466 8.18331L4 0ZM51.7956 10.3415L52.3958 9.54166L51.7956 10.3415ZM5.3437 8.95668C6.95445 14.9687 9.50329 21.7877 16.8563 29.1459L18.271 27.7322C11.2438 20.7 8.82901 14.2372 7.27557 8.43909L5.3437 8.95668ZM16.8563 29.1459C23.5602 35.8544 30.9387 37.281 37.4138 36.295C43.8348 35.3172 49.336 31.9776 52.4618 29.1847L51.1293 27.6933C48.2269 30.2866 43.0711 33.4104 37.1127 34.3178C31.2083 35.2169 24.485 33.9504 18.271 27.7322L16.8563 29.1459ZM52.4618 29.1847C58.9438 23.3931 58.0857 13.8121 52.3958 9.54166L51.1953 11.1413C55.8396 14.6269 56.7037 22.7126 51.1293 27.6933L52.4618 29.1847ZM52.3958 9.54166C44.5321 3.63973 32.9276 8.2353 29.5324 18.4279L31.4299 19.0599C34.4937 9.86226 44.6651 6.2402 51.1953 11.1413L52.3958 9.54166ZM29.5324 18.4279C27.8455 23.4922 27.6915 30.5021 29.9373 37.161C32.1919 43.8458 36.8827 50.2227 44.9198 53.909L45.7536 52.091C38.2892 48.6675 33.9377 42.7639 31.8324 36.5219C29.7185 30.254 29.8874 23.6908 31.4299 19.0599L29.5324 18.4279Z" fill="#A0AEC0"/>
</svg>
