<svg width="148" height="133" viewBox="0 0 148 133" fill="none" xmlns="http://www.w3.org/2000/svg">
<path d="M80.4876 1.72282C82.5251 2.88489 84.2134 4.57341 85.376 6.61191L146.277 113.411C149.861 119.695 147.672 127.695 141.389 131.279C139.412 132.407 137.176 133 134.9 133H13.0972C5.86389 133 0 127.135 0 119.901C8.22994e-05 117.624 0.593044 115.388 1.72038 113.411L62.6217 6.61207C66.2054 0.32754 74.2043 -1.86135 80.4876 1.72282ZM70.8034 11.1541L70.7482 11.2475L9.84688 118.046C9.52474 118.611 9.35529 119.25 9.35523 119.901C9.35523 121.933 10.9744 123.586 12.9926 123.642L13.0973 123.643H134.9C135.551 123.643 136.189 123.474 136.754 123.152C138.518 122.146 139.153 119.922 138.203 118.141L138.151 118.046L77.2495 11.2475C76.9398 10.7045 76.4992 10.2478 75.9679 9.919L75.8528 9.85063C74.089 8.84459 71.8522 9.43063 70.8034 11.1541ZM73.9989 100.439C77.719 100.439 80.7346 103.455 80.7346 107.175C80.7346 110.896 77.719 113.912 73.9989 113.912C70.2788 113.912 67.2631 110.896 67.2631 107.175C67.2631 103.455 70.2788 100.439 73.9989 100.439ZM73.9989 35.6899C76.6472 35.6899 78.8012 37.8065 78.8624 40.4406L78.8637 40.5554V85.8421C78.8637 88.5292 76.6856 90.7076 73.9989 90.7076C71.3505 90.7076 69.1965 88.591 69.1355 85.9569L69.134 85.8421V40.5554C69.134 37.8684 71.3121 35.6899 73.9989 35.6899Z" fill="#CED0D8"/>
</svg>
