<svg width="16" height="16" viewBox="0 0 16 16" fill="none" xmlns="http://www.w3.org/2000/svg">
<path d="M7.20029 4.23179C7.20029 5.55727 6.12578 6.63179 4.80029 6.63179C3.47481 6.63179 2.40029 5.55727 2.40029 4.23179C2.40029 2.9063 3.47481 1.83179 4.80029 1.83179C6.12578 1.83179 7.20029 2.9063 7.20029 4.23179Z" fill="#1A202C" fill-opacity="0.8"/>
<path d="M13.6003 4.23179C13.6003 5.55727 12.5258 6.63179 11.2003 6.63179C9.87481 6.63179 8.80029 5.55727 8.80029 4.23179C8.80029 2.9063 9.87481 1.83179 11.2003 1.83179C12.5258 1.83179 13.6003 2.9063 13.6003 4.23179Z" fill="#1A202C" fill-opacity="0.8"/>
<path d="M10.3436 13.0318C10.381 12.7705 10.4003 12.5034 10.4003 12.2318C10.4003 10.9236 9.95177 9.72026 9.2001 8.76704C9.78849 8.42662 10.4716 8.23179 11.2003 8.23179C13.4094 8.23179 15.2003 10.0226 15.2003 12.2318V13.0318H10.3436Z" fill="#1A202C" fill-opacity="0.8"/>
<path d="M4.80029 8.23179C7.00943 8.23179 8.80029 10.0226 8.80029 12.2318V13.0318H0.800293V12.2318C0.800293 10.0226 2.59115 8.23179 4.80029 8.23179Z" fill="#1A202C" fill-opacity="0.8"/>
</svg>
