<svg width="20" height="20" viewBox="0 0 20 20" fill="none" xmlns="http://www.w3.org/2000/svg">
<path d="M10.1041 4.89518L10.1041 4.90247M10.1041 9.99935L10.1041 10.0066M10.1041 15.1035L10.1041 15.1108M10.1041 5.62435C9.70138 5.62435 9.37492 5.29789 9.37492 4.89518C9.37492 4.49247 9.70138 4.16602 10.1041 4.16602C10.5068 4.16602 10.8333 4.49247 10.8333 4.89518C10.8333 5.29789 10.5068 5.62435 10.1041 5.62435ZM10.1041 10.7285C9.70138 10.7285 9.37492 10.4021 9.37492 9.99935C9.37492 9.59664 9.70138 9.27018 10.1041 9.27018C10.5068 9.27018 10.8333 9.59664 10.8333 9.99935C10.8333 10.4021 10.5068 10.7285 10.1041 10.7285ZM10.1041 15.8327C9.70138 15.8327 9.37492 15.5062 9.37492 15.1035C9.37492 14.7008 9.70138 14.3743 10.1041 14.3743C10.5068 14.3743 10.8333 14.7008 10.8333 15.1035C10.8333 15.5062 10.5068 15.8327 10.1041 15.8327Z" stroke="#1D6BCB" stroke-width="1.66667" stroke-linecap="round" stroke-linejoin="round"/>
</svg>
