<svg width="14" height="14" viewBox="0 0 14 14" fill="none" xmlns="http://www.w3.org/2000/svg">
<path fill-rule="evenodd" clip-rule="evenodd" d="M11.6672 9.49995C11.6672 10.3897 10.9459 11.1111 10.0561 11.1111C9.16631 11.1111 8.44499 10.3897 8.44499 9.49995C8.44499 8.61015 9.16631 7.88883 10.0561 7.88883C10.9459 7.88883 11.6672 8.61015 11.6672 9.49995ZM11.2448 12.0113C10.8844 12.1821 10.4814 12.2777 10.0561 12.2777C8.52197 12.2777 7.27832 11.0341 7.27832 9.49995C7.27832 7.96582 8.52197 6.72217 10.0561 6.72217C11.5902 6.72217 12.8339 7.96582 12.8339 9.49995C12.8339 10.1871 12.5843 10.8161 12.1709 11.301L13.0965 12.5802C13.2854 12.8412 13.2269 13.2059 12.9659 13.3947C12.7049 13.5836 12.3402 13.5251 12.1513 13.2641L11.2448 12.0113Z" fill="#1A202C" fill-opacity="0.4"/>
<path d="M11.167 4.51388V1.16699H1.16699V11.7225H6.16699" stroke="#1A202C" stroke-opacity="0.4" stroke-width="1.16667" stroke-linecap="round" stroke-linejoin="round"/>
<line x1="3.41683" y1="3.91715" x2="8.91683" y2="3.91716" stroke="#1A202C" stroke-opacity="0.4" stroke-width="1.16667" stroke-linecap="round"/>
<line x1="3.41683" y1="6.13932" x2="7.80572" y2="6.13932" stroke="#1A202C" stroke-opacity="0.4" stroke-width="1.16667" stroke-linecap="round"/>
<line x1="3.41683" y1="8.36149" x2="5.5835" y2="8.36149" stroke="#1A202C" stroke-opacity="0.4" stroke-width="1.16667" stroke-linecap="round"/>
</svg>
