<svg width="24" height="24" viewBox="0 0 24 24" fill="none" xmlns="http://www.w3.org/2000/svg">
<mask id="path-1-inside-1_8738_223086" fill="white">
<path d="M18.071 17.8336H5.93217C5.88288 17.8338 5.8341 17.8436 5.78861 17.8626C5.74311 17.8816 5.70181 17.9093 5.66704 17.9443C5.63228 17.9792 5.60473 18.0206 5.58599 18.0662C5.56724 18.1118 5.55766 18.1607 5.55779 18.21V18.6518C5.55757 18.7513 5.59688 18.8469 5.66709 18.9174C5.7373 18.988 5.83265 19.0278 5.93217 19.028H18.071C18.1705 19.0278 18.2658 18.988 18.336 18.9174C18.4062 18.8469 18.4456 18.7513 18.4453 18.6518V18.21C18.4455 18.1607 18.4359 18.1118 18.4171 18.0662C18.3984 18.0206 18.3709 17.9792 18.3361 17.9443C18.3013 17.9093 18.26 17.8816 18.2145 17.8626C18.169 17.8436 18.1202 17.8338 18.071 17.8336ZM18.1257 4.87695H5.87372C5.34005 4.87695 4.90708 5.31131 4.90625 5.84761V15.5642C4.90625 16.1012 5.33936 16.5365 5.87372 16.5365H18.1219C18.3784 16.5365 18.6247 16.434 18.8061 16.2516C18.9877 16.0689 19.0895 15.8217 19.0894 15.5642V5.84761C19.0886 5.31131 18.6556 4.87695 18.1219 4.87695H18.1257Z"/>
</mask>
<path d="M18.071 17.8336L18.0735 16.8336H18.071V17.8336ZM5.93217 17.8336V16.8336L5.92959 16.8336L5.93217 17.8336ZM5.55779 18.21H6.55779L6.55779 18.2074L5.55779 18.21ZM5.55779 18.6518L6.55779 18.654V18.6518H5.55779ZM5.93217 19.028L5.92959 20.028H5.93217V19.028ZM18.071 19.028V20.028L18.0735 20.028L18.071 19.028ZM18.4453 18.6518H17.4453L17.4453 18.654L18.4453 18.6518ZM18.4453 18.21L17.4453 18.2074V18.21H18.4453ZM4.90625 5.84761L3.90625 5.84606V5.84761H4.90625ZM18.8061 16.2516L19.5151 16.9568L19.5155 16.9565L18.8061 16.2516ZM19.0894 15.5642H18.0894L18.0894 15.5647L19.0894 15.5642ZM19.0894 5.84761H20.0894L20.0894 5.84606L19.0894 5.84761ZM18.071 16.8336H5.93217V18.8336H18.071V16.8336ZM5.92959 16.8336C5.74897 16.8341 5.57022 16.8701 5.40354 16.9397L6.17367 18.7855C6.09798 18.817 6.01679 18.8334 5.93475 18.8336L5.92959 16.8336ZM5.40354 16.9397C5.23685 17.0092 5.08549 17.1109 4.95811 17.239L6.37597 18.6495C6.31812 18.7077 6.24938 18.7539 6.17367 18.7855L5.40354 16.9397ZM4.95811 17.239C4.83073 17.367 4.72981 17.5189 4.66112 17.6859L6.51085 18.4465C6.47966 18.5224 6.43383 18.5914 6.37597 18.6495L4.95811 17.239ZM4.66112 17.6859C4.59244 17.853 4.55732 18.0319 4.55779 18.2125L6.55779 18.2074C6.558 18.2894 6.54205 18.3707 6.51085 18.4465L4.66112 17.6859ZM4.55779 18.21V18.6518H6.55779V18.21H4.55779ZM4.55779 18.6496C4.55698 19.0143 4.70104 19.3644 4.95829 19.6228L6.37589 18.212C6.49273 18.3294 6.55815 18.4884 6.55779 18.654L4.55779 18.6496ZM4.95829 19.6228C5.21553 19.8813 5.56491 20.0271 5.92959 20.028L5.93475 18.028C6.10039 18.0284 6.25906 18.0946 6.37589 18.212L4.95829 19.6228ZM5.93217 20.028H18.071V18.028H5.93217V20.028ZM18.0735 20.028C18.4382 20.0271 18.7876 19.8813 19.0448 19.6228L17.6272 18.212C17.7441 18.0946 17.9027 18.0284 18.0684 18.028L18.0735 20.028ZM19.0448 19.6228C19.3021 19.3644 19.4461 19.0143 19.4453 18.6496L17.4453 18.654C17.445 18.4884 17.5104 18.3294 17.6272 18.212L19.0448 19.6228ZM19.4453 18.6518V18.21H17.4453V18.6518H19.4453ZM19.4453 18.2125C19.4458 18.0319 19.4107 17.853 19.342 17.6859L17.4923 18.4465C17.4611 18.3707 17.4451 18.2894 17.4453 18.2074L19.4453 18.2125ZM19.342 17.6859C19.2733 17.5189 19.1724 17.367 19.045 17.239L17.6272 18.6495C17.5693 18.5914 17.5235 18.5224 17.4923 18.4465L19.342 17.6859ZM19.045 17.239C18.9176 17.1109 18.7663 17.0092 18.5996 16.9397L17.8295 18.7855C17.7537 18.7539 17.685 18.7077 17.6272 18.6495L19.045 17.239ZM18.5996 16.9397C18.4329 16.8701 18.2542 16.8341 18.0735 16.8336L18.0684 18.8336C17.9863 18.8334 17.9052 18.817 17.8295 18.7855L18.5996 16.9397ZM18.1257 3.87695H5.87372V5.87695H18.1257V3.87695ZM5.87372 3.87695C4.78385 3.87695 3.90793 4.76262 3.90625 5.84606L5.90625 5.84916C5.90625 5.8505 5.90578 5.85438 5.90394 5.85874C5.90237 5.86245 5.90042 5.86513 5.89843 5.86712C5.89644 5.86912 5.89326 5.87158 5.88833 5.87368C5.88272 5.87606 5.87711 5.87695 5.87372 5.87695V3.87695ZM3.90625 5.84761V15.5642H5.90625V5.84761H3.90625ZM3.90625 15.5642C3.90625 16.6487 4.78234 17.5365 5.87372 17.5365V15.5365C5.87707 15.5365 5.88268 15.5374 5.88833 15.5398C5.89329 15.5419 5.89649 15.5444 5.89848 15.5464C5.90048 15.5484 5.90243 15.5511 5.90398 15.5548C5.90581 15.5591 5.90625 15.5629 5.90625 15.5642H3.90625ZM5.87372 17.5365H18.1219V15.5365H5.87372V17.5365ZM18.1219 17.5365C18.6453 17.5365 19.1465 17.3274 19.5151 16.9568L18.0972 15.5464C18.1029 15.5406 18.1116 15.5365 18.1219 15.5365V17.5365ZM19.5155 16.9565C19.8833 16.5863 20.0897 16.0855 20.0894 15.5637L18.0894 15.5647C18.0894 15.558 18.0921 15.5515 18.0968 15.5467L19.5155 16.9565ZM20.0894 15.5642V5.84761H18.0894V15.5642H20.0894ZM20.0894 5.84606C20.0877 4.76262 19.2118 3.87695 18.1219 3.87695V5.87695C18.1185 5.87695 18.1129 5.87606 18.1073 5.87368C18.1024 5.87158 18.0992 5.86912 18.0972 5.86712C18.0952 5.86513 18.0933 5.86245 18.0917 5.85874C18.0899 5.85438 18.0894 5.8505 18.0894 5.84916L20.0894 5.84606ZM18.1219 5.87695H18.1257V3.87695H18.1219V5.87695Z" fill="#A0AEC0" mask="url(#path-1-inside-1_8738_223086)"/>
<path d="M7.83938 7.41961C7.89079 7.51714 7.91782 7.62768 7.91776 7.74017V12.307C7.91776 12.6614 7.65536 12.9488 7.33193 12.9488C7.00837 12.9488 6.74609 12.6614 6.74609 12.307V7.74017C6.74602 7.62769 6.77303 7.51716 6.82442 7.41963C6.87581 7.3221 6.94979 7.24099 7.03895 7.18441C7.12793 7.12809 7.22898 7.09843 7.33186 7.09843C7.43475 7.09843 7.5358 7.12809 7.62478 7.18441C7.71396 7.24097 7.78796 7.32207 7.83938 7.41961Z" fill="#A0AEC0"/>
<path d="M10.1827 7.41961C10.2341 7.51714 10.2612 7.62768 10.2611 7.74017V14.1588C10.2611 14.5134 9.9987 14.8008 9.67526 14.8008C9.3517 14.8008 9.08943 14.5134 9.08943 14.1588V7.74017C9.08935 7.62769 9.11636 7.51716 9.16776 7.41963C9.21915 7.3221 9.29312 7.24099 9.38228 7.18441C9.47126 7.12809 9.57231 7.09843 9.6752 7.09843C9.77808 7.09843 9.87914 7.12809 9.96812 7.18441C10.0573 7.24097 10.1313 7.32207 10.1827 7.41961Z" fill="#A0AEC0"/>
<path d="M12.0186 7.09823C12.3422 7.09823 12.6044 7.38572 12.6044 7.74017V13.0239C12.6044 13.3784 12.3422 13.6658 12.0186 13.6658C11.695 13.6658 11.4328 13.3784 11.4328 13.0239V7.74017C11.4328 7.38572 11.6952 7.09823 12.0186 7.09823Z" fill="#A0AEC0"/>
<path d="M14.3619 7.09823C14.6855 7.09823 14.9478 7.38572 14.9478 7.74017V12.8751C14.9478 13.2297 14.6855 13.517 14.3619 13.517C14.0384 13.517 13.7761 13.2297 13.7761 12.8751V7.74017C13.7761 7.38572 14.0385 7.09823 14.3619 7.09823Z" fill="#A0AEC0"/>
<path d="M17.1712 7.41961C17.2226 7.51714 17.2496 7.62768 17.2496 7.74017V11.307C17.2496 11.6614 16.9872 11.9488 16.6637 11.9488C16.3402 11.9488 16.0779 11.6614 16.0779 11.307V7.74017C16.0778 7.62769 16.1048 7.51716 16.1562 7.41963C16.2076 7.3221 16.2816 7.24099 16.3708 7.18441C16.4597 7.12809 16.5608 7.09843 16.6637 7.09843C16.7666 7.09843 16.8676 7.12809 16.9566 7.18441C17.0458 7.24097 17.1198 7.32207 17.1712 7.41961Z" fill="#A0AEC0"/>
</svg>
