<svg width="16" height="16" viewBox="0 0 16 16" fill="none" xmlns="http://www.w3.org/2000/svg">
<path d="M1.60052 2.63203C1.60052 2.1902 1.95869 1.83203 2.40052 1.83203H4.00052C4.44234 1.83203 4.80052 2.1902 4.80052 2.63203V12.232C4.80052 12.6739 4.44234 13.032 4.00052 13.032H2.40052C1.95869 13.032 1.60052 12.6739 1.60052 12.232V2.63203Z" fill="#1A202C" fill-opacity="0.8"/>
<path d="M6.40052 2.63203C6.40052 2.1902 6.75869 1.83203 7.20052 1.83203H8.80052C9.24234 1.83203 9.60052 2.1902 9.60052 2.63203V12.232C9.60052 12.6739 9.24234 13.032 8.80052 13.032H7.20052C6.75869 13.032 6.40052 12.6739 6.40052 12.232V2.63203Z" fill="#1A202C" fill-opacity="0.8"/>
<path d="M12.0005 1.83203C11.5587 1.83203 11.2005 2.1902 11.2005 2.63203V12.232C11.2005 12.6739 11.5587 13.032 12.0005 13.032H13.6005C14.0423 13.032 14.4005 12.6739 14.4005 12.232V2.63203C14.4005 2.1902 14.0423 1.83203 13.6005 1.83203H12.0005Z" fill="#1A202C" fill-opacity="0.8"/>
</svg>
