<svg width="24" height="24" viewBox="0 0 24 24" fill="none" xmlns="http://www.w3.org/2000/svg">
<path d="M18.1022 17.8336H5.96342C5.91413 17.8338 5.86535 17.8436 5.81986 17.8626C5.77436 17.8816 5.73306 17.9093 5.69829 17.9443C5.66353 17.9792 5.63598 18.0206 5.61724 18.0662C5.59849 18.1118 5.58891 18.1607 5.58904 18.21V18.6257C5.58882 18.7253 5.62813 18.8208 5.69834 18.8914C5.76855 18.9619 5.8639 19.0017 5.96342 19.0019H18.1022C18.2017 19.0017 18.2971 18.9619 18.3673 18.8914C18.4375 18.8208 18.4768 18.7253 18.4766 18.6257V18.21C18.4767 18.1607 18.4671 18.1118 18.4484 18.0662C18.4296 18.0206 18.4021 17.9792 18.3673 17.9443C18.3326 17.9093 18.2913 17.8816 18.2458 17.8626C18.2003 17.8436 18.1515 17.8338 18.1022 17.8336ZM18.1569 4.87695H5.90497C5.3713 4.87695 4.93833 5.31131 4.9375 5.84761V15.5642C4.9375 16.1012 5.37061 16.5365 5.90497 16.5365H18.1532C18.4097 16.5365 18.656 16.434 18.8374 16.2516C19.0189 16.0689 19.1208 15.8217 19.1206 15.5642V5.84761C19.1198 5.31131 18.6868 4.87695 18.1532 4.87695H18.1569Z" fill="#1D6BCB"/>
<path d="M7.53168 7.66639C7.59539 7.70305 7.66759 7.72233 7.74107 7.72229L14.83 7.72229C15.0616 7.72229 15.2492 7.53516 15.2492 7.3045C15.2492 7.07376 15.0616 6.88672 14.83 6.88672L7.74107 6.88672C7.6676 6.88667 7.5954 6.90593 7.5317 6.94258C7.468 6.97923 7.41502 7.03198 7.37806 7.09557C7.34128 7.15902 7.3219 7.23109 7.3219 7.30446C7.3219 7.37783 7.34128 7.44989 7.37806 7.51335C7.41501 7.57695 7.46798 7.62972 7.53168 7.66639Z" fill="white"/>
<path d="M7.53168 9.40954C7.59539 9.44621 7.66759 9.46549 7.74107 9.46544H15.9775C16.2091 9.46544 16.3968 9.27831 16.3968 9.04766C16.3968 8.81691 16.2091 8.62988 15.9775 8.62988H7.74107C7.6676 8.62982 7.5954 8.64908 7.5317 8.68573C7.468 8.72238 7.41502 8.77514 7.37806 8.83872C7.34128 8.90218 7.3219 8.97424 7.3219 9.04761C7.3219 9.12098 7.34128 9.19305 7.37806 9.25651C7.41501 9.32011 7.46798 9.37288 7.53168 9.40954Z" fill="white"/>
<path d="M7.32178 10.7908C7.32178 11.0216 7.50955 11.2086 7.74107 11.2086H14.3521C14.5836 11.2086 14.7714 11.0216 14.7714 10.7908C14.7714 10.5601 14.5836 10.373 14.3521 10.373H7.74107C7.50955 10.373 7.32178 10.5602 7.32178 10.7908Z" fill="white"/>
<path d="M7.32178 12.534C7.32178 12.7647 7.50955 12.9518 7.74107 12.9518H16.7956C17.0272 12.9518 17.2148 12.7647 17.2148 12.534C17.2148 12.3032 17.0272 12.1162 16.7956 12.1162H7.74107C7.50955 12.1162 7.32178 12.3033 7.32178 12.534Z" fill="white"/>
<path d="M7.53168 14.6094C7.59539 14.6461 7.66759 14.6653 7.74107 14.6653H14.3259C14.5574 14.6653 14.7451 14.4782 14.7451 14.2475C14.7451 14.0168 14.5574 13.8297 14.3259 13.8297H7.74107C7.6676 13.8297 7.5954 13.8489 7.5317 13.8856C7.468 13.9222 7.41502 13.975 7.37806 14.0386C7.34128 14.102 7.3219 14.1741 7.3219 14.2475C7.3219 14.3208 7.34128 14.3929 7.37806 14.4564C7.41501 14.52 7.46798 14.5727 7.53168 14.6094Z" fill="white"/>
</svg>
