<svg width="26" height="30" viewBox="0 0 26 30" fill="none" xmlns="http://www.w3.org/2000/svg">
<path d="M1.79995 0.599609C0.916296 0.599609 0.199951 1.31595 0.199951 2.19961V27.7996C0.199951 28.6833 0.916296 29.3996 1.79995 29.3996H24.2C25.0836 29.3996 25.8 28.6833 25.8 27.7996V8.59961L17.8 0.599609H1.79995Z" fill="#33C481"/>
<path d="M17.8 6.99961C17.8 7.88327 18.5164 8.59961 19.4 8.59961H25.8L17.8 0.599609V6.99961Z" fill="#DFFFE0"/>
<path d="M3.8125 20.1992H5.34063L6.81719 17.8273H6.86406L8.34531 20.1992H9.95781L7.77344 16.8195V16.8008L9.99062 13.4352H8.40625L6.98125 15.8727H6.925L5.49063 13.4352H3.82188L5.95938 16.7773V16.7914L3.8125 20.1992Z" fill="white"/>
<path d="M11.2234 20.1992H15.6484V19.032H12.6391V13.4352H11.2234V20.1992Z" fill="white"/>
<path d="M19.3516 20.3727C21.0391 20.3727 22.0797 19.5242 22.0797 18.1836V18.1789C22.0797 17.1242 21.4563 16.5523 20.0266 16.257L19.3094 16.1117C18.5125 15.9477 18.1844 15.6852 18.1844 15.2445V15.2398C18.1844 14.7336 18.6484 14.4148 19.3469 14.4102C20.0594 14.4102 20.5281 14.7477 20.6078 15.2305L20.6172 15.2867H21.9484L21.9438 15.2258C21.8547 14.0961 20.9266 13.2617 19.3469 13.2617C17.8469 13.2617 16.7688 14.0914 16.7688 15.3477V15.3523C16.7688 16.3789 17.3734 17.0352 18.7797 17.3211L19.4922 17.4664C20.3313 17.6398 20.6641 17.8883 20.6641 18.3336V18.3383C20.6641 18.8586 20.1438 19.2195 19.3891 19.2195C18.5969 19.2195 18.0484 18.8773 17.9969 18.3711L17.9922 18.3242H16.6281L16.6328 18.3992C16.7125 19.5992 17.7344 20.3727 19.3516 20.3727Z" fill="white"/>
</svg>
