<svg width="26" height="30" viewBox="0 0 26 30" fill="none" xmlns="http://www.w3.org/2000/svg">
<path d="M1.79995 0.599609C0.916296 0.599609 0.199951 1.31595 0.199951 2.19961V27.7996C0.199951 28.6833 0.916296 29.3996 1.79995 29.3996H24.2C25.0836 29.3996 25.8 28.6833 25.8 27.7996V8.59961L17.8 0.599609H1.79995Z" fill="#33C481"/>
<path d="M17.8 6.99961C17.8 7.88327 18.5164 8.59961 19.4 8.59961H25.8L17.8 0.599609V6.99961Z" fill="#DFFFE0"/>
<path d="M2.19995 21.4533H3.51298L4.7817 19.4519H4.82197L6.09472 21.4533H7.48024L5.60334 18.6016V18.5858L7.50844 15.746H6.14708L4.92267 17.8026H4.87433L3.64186 15.746H2.20801L4.04463 18.566V18.5779L2.19995 21.4533Z" fill="white"/>
<path d="M8.56772 21.4533H12.3699V20.4684H9.78408V15.746H8.56772V21.4533Z" fill="white"/>
<path d="M15.5517 21.5996C17.0017 21.5996 17.8958 20.8837 17.8958 19.7525V19.7486C17.8958 18.8587 17.3602 18.3761 16.1317 18.127L15.5155 18.0044C14.8308 17.8659 14.5488 17.6444 14.5488 17.2726V17.2687C14.5488 16.8415 14.9476 16.5726 15.5477 16.5686C16.1599 16.5686 16.5627 16.8534 16.6311 17.2608L16.6392 17.3082H17.7831L17.779 17.2568C17.7025 16.3036 16.905 15.5996 15.5477 15.5996C14.2588 15.5996 13.3325 16.2997 13.3325 17.3597V17.3636C13.3325 18.2298 13.852 18.7835 15.0603 19.0248L15.6726 19.1474C16.3935 19.2937 16.6795 19.5034 16.6795 19.8791V19.8831C16.6795 20.3221 16.2324 20.6266 15.5839 20.6266C14.9033 20.6266 14.432 20.3379 14.3877 19.9107L14.3837 19.8712H13.2116L13.2157 19.9345C13.2841 20.947 14.1622 21.5996 15.5517 21.5996Z" fill="white"/>
<path d="M18.4915 21.4533H19.8045L21.0732 19.4519H21.1135L22.3862 21.4533H23.7718L21.8949 18.6016V18.5858L23.8 15.746H22.4386L21.2142 17.8026H21.1658L19.9334 15.746H18.4995L20.3361 18.566V18.5779L18.4915 21.4533Z" fill="white"/>
</svg>
