<svg width="30" height="30" viewBox="0 0 30 30" fill="none" xmlns="http://www.w3.org/2000/svg">
<g clip-path="url(#clip0)">
<path d="M2.8125 5.625H17.8125C18.5584 5.625 19.2738 5.92132 19.8012 6.44876C20.3287 6.97621 20.625 7.69158 20.625 8.4375V27.1875C20.625 27.9334 20.3287 28.6488 19.8012 29.1762C19.2738 29.7037 18.5584 30 17.8125 30H2.8125C2.06658 30 1.35121 29.7037 0.823762 29.1762C0.296316 28.6488 0 27.9334 0 27.1875L0 8.4375C0 7.69158 0.296316 6.97621 0.823762 6.44876C1.35121 5.92132 2.06658 5.625 2.8125 5.625ZM2.8125 7.5C2.56386 7.5 2.3254 7.59877 2.14959 7.77459C1.97377 7.9504 1.875 8.18886 1.875 8.4375V27.1875C1.875 27.4361 1.97377 27.6746 2.14959 27.8504C2.3254 28.0262 2.56386 28.125 2.8125 28.125H17.8125C18.0611 28.125 18.2996 28.0262 18.4754 27.8504C18.6512 27.6746 18.75 27.4361 18.75 27.1875V8.4375C18.75 8.18886 18.6512 7.9504 18.4754 7.77459C18.2996 7.59877 18.0611 7.5 17.8125 7.5H2.8125ZM11.5631 2.11313C11.3775 2.2747 11.1357 2.35678 10.89 2.34165C10.6444 2.32652 10.4145 2.21539 10.2501 2.03225C10.0857 1.84911 9.99985 1.60865 10.0112 1.36279C10.0225 1.11692 10.1301 0.885375 10.3106 0.718126C10.8261 0.255169 11.4947 -0.000636019 12.1875 1.18759e-06H27.1875C27.9334 1.18759e-06 28.6488 0.296317 29.1762 0.823763C29.7037 1.35121 30 2.06658 30 2.8125V21.5625C30 22.3084 29.7037 23.0238 29.1762 23.5512C28.6488 24.0787 27.9334 24.375 27.1875 24.375H25.1381C24.8895 24.375 24.651 24.2762 24.4752 24.1004C24.2994 23.9246 24.2006 23.6861 24.2006 23.4375C24.2006 23.1889 24.2994 22.9504 24.4752 22.7746C24.651 22.5988 24.8895 22.5 25.1381 22.5H27.1875C27.4361 22.5 27.6746 22.4012 27.8504 22.2254C28.0262 22.0496 28.125 21.8111 28.125 21.5625V2.8125C28.125 2.56386 28.0262 2.3254 27.8504 2.14959C27.6746 1.97377 27.4361 1.875 27.1875 1.875H12.1875C11.9571 1.87428 11.7346 1.95914 11.5631 2.11313ZM4.6875 20.625C4.43886 20.625 4.2004 20.5262 4.02459 20.3504C3.84877 20.1746 3.75 19.9361 3.75 19.6875C3.75 19.4389 3.84877 19.2004 4.02459 19.0246C4.2004 18.8488 4.43886 18.75 4.6875 18.75H15.9375C16.1861 18.75 16.4246 18.8488 16.6004 19.0246C16.7762 19.2004 16.875 19.4389 16.875 19.6875C16.875 19.9361 16.7762 20.1746 16.6004 20.3504C16.4246 20.5262 16.1861 20.625 15.9375 20.625H4.6875ZM4.6875 24.375C4.43886 24.375 4.2004 24.2762 4.02459 24.1004C3.84877 23.9246 3.75 23.6861 3.75 23.4375C3.75 23.1889 3.84877 22.9504 4.02459 22.7746C4.2004 22.5988 4.43886 22.5 4.6875 22.5H15.9375C16.1861 22.5 16.4246 22.5988 16.6004 22.7746C16.7762 22.9504 16.875 23.1889 16.875 23.4375C16.875 23.6861 16.7762 23.9246 16.6004 24.1004C16.4246 24.2762 16.1861 24.375 15.9375 24.375H4.6875ZM4.6875 16.875C4.43886 16.875 4.2004 16.7762 4.02459 16.6004C3.84877 16.4246 3.75 16.1861 3.75 15.9375C3.75 15.6889 3.84877 15.4504 4.02459 15.2746C4.2004 15.0988 4.43886 15 4.6875 15H15.9375C16.1861 15 16.4246 15.0988 16.6004 15.2746C16.7762 15.4504 16.875 15.6889 16.875 15.9375C16.875 16.1861 16.7762 16.4246 16.6004 16.6004C16.4246 16.7762 16.1861 16.875 15.9375 16.875H4.6875Z" fill="#626671"/>
</g>
<defs>
<clipPath id="clip0">
<rect width="30" height="30" fill="white"/>
</clipPath>
</defs>
</svg>
